<svg id="Layer_1" data-name="Layer 1" xmlns="http://www.w3.org/2000/svg" viewBox="0 0 273.53 375"><defs><style>.cls-1{fill:#ed1c24;}.cls-10,.cls-11,.cls-12,.cls-13,.cls-14,.cls-15,.cls-16,.cls-17,.cls-18,.cls-19,.cls-2,.cls-20,.cls-21,.cls-22,.cls-23,.cls-24,.cls-25,.cls-26,.cls-27,.cls-28,.cls-29,.cls-3,.cls-30,.cls-31,.cls-32,.cls-33,.cls-34,.cls-4,.cls-5,.cls-6,.cls-7,.cls-8,.cls-9{fill:none;stroke-linecap:round;stroke-linejoin:round;}.cls-10,.cls-11,.cls-12,.cls-13,.cls-2,.cls-26,.cls-28,.cls-29,.cls-3,.cls-30,.cls-31,.cls-32,.cls-33,.cls-34,.cls-4,.cls-5,.cls-6,.cls-7,.cls-8,.cls-9{stroke:#909090;}.cls-2{stroke-width:2.75px;}.cls-3{stroke-width:2.33px;}.cls-4{stroke-width:1.92px;}.cls-5{stroke-width:1.51px;}.cls-6{stroke-width:3.16px;}.cls-7{stroke-width:3.57px;}.cls-8{stroke-width:3.98px;}.cls-9{stroke-width:4.4px;}.cls-10{stroke-width:4.81px;}.cls-11{stroke-width:5.22px;}.cls-12{stroke-width:5.63px;}.cls-13{stroke-width:6.05px;}.cls-14,.cls-15,.cls-16,.cls-17,.cls-18,.cls-19,.cls-20,.cls-21,.cls-22,.cls-23,.cls-24,.cls-25,.cls-27{stroke:#ed1c24;}.cls-14{stroke-width:2.13px;}.cls-15{stroke-width:2.54px;}.cls-16{stroke-width:2.95px;}.cls-17{stroke-width:3.36px;}.cls-18{stroke-width:3.78px;}.cls-19{stroke-width:4.19px;}.cls-20{stroke-width:4.6px;}.cls-21{stroke-width:5.02px;}.cls-22{stroke-width:5.43px;}.cls-23{stroke-width:5.84px;}.cls-24{stroke-width:6.25px;}.cls-25{stroke-width:1.71px;}.cls-26{stroke-width:1.1px;}.cls-27{stroke-width:1.3px;}.cls-28{stroke-width:1.55px;}.cls-29{stroke-width:1.29px;}.cls-30{stroke-width:1.16px;}.cls-31{stroke-width:1.03px;}.cls-32{stroke-width:0.97px;}.cls-33{stroke-width:0.84px;}.cls-34{stroke-width:0.64px;}.cls-35{fill:#909090;}</style></defs><title>logo</title><path class="cls-1" d="M51.54,346.9a1,1,0,0,1,.21-.65.79.79,0,0,1,.63-.24H64.81a9.38,9.38,0,0,1,3.71.74,10,10,0,0,1,3,2,9.33,9.33,0,0,1,2,3,9,9,0,0,1,.74,3.62,8.52,8.52,0,0,1-.36,2.49,8.63,8.63,0,0,1-1,2.21,9,9,0,0,1-1.51,1.87,9.43,9.43,0,0,1-1.91,1.43l4.94,9.31c.09.18.21.39.35.64a1.3,1.3,0,0,1,.21.63.58.58,0,0,1-.2.47.86.86,0,0,1-.55.17h-6.6a.93.93,0,0,1-.58-.2.82.82,0,0,1-.34-.51l-4.67-8.79H59v8.67c0,.55-.3.83-.88.83H52.38a.87.87,0,0,1-.61-.21.75.75,0,0,1-.23-.62Zm15.06,8.54a3.29,3.29,0,0,0-.21-1.15,4.09,4.09,0,0,0-.6-1.06,3.75,3.75,0,0,0-.92-.81,3.07,3.07,0,0,0-1.2-.42l-1-.07c-.31,0-.65,0-1,0H59V359h3.54l.61,0,.6-.06a3,3,0,0,0,1.21-.39,3.31,3.31,0,0,0,.91-.79,3.45,3.45,0,0,0,.55-1.06A3.78,3.78,0,0,0,66.6,355.44Z" transform="translate(-0.82 0)"/><path class="cls-1" d="M78.54,346.9a.93.93,0,0,1,.22-.65.82.82,0,0,1,.63-.24H92.16a8,8,0,0,1,3.19.65A8.35,8.35,0,0,1,98,348.43a8.54,8.54,0,0,1,1.78,2.63,8.19,8.19,0,0,1,.65,3.24A7.83,7.83,0,0,1,100,357a7.44,7.44,0,0,1-1.28,2.22,9.45,9.45,0,0,1,2.19,3,8.73,8.73,0,0,1,.81,3.71,8.31,8.31,0,0,1-.67,3.32A9.22,9.22,0,0,1,99.19,372a8.64,8.64,0,0,1-2.67,1.87,7.63,7.63,0,0,1-3.23.7H79.39a.9.9,0,0,1-.62-.21.79.79,0,0,1-.23-.62ZM93,354.48a2.74,2.74,0,0,0-.21-1.08,2.65,2.65,0,0,0-.6-.88,2.69,2.69,0,0,0-.92-.61,3,3,0,0,0-1.18-.22H86v5.58h4.07a3.38,3.38,0,0,0,1.21-.21,2.43,2.43,0,0,0,.93-.57,2.77,2.77,0,0,0,.61-.89A2.73,2.73,0,0,0,93,354.48Zm1,11.17a3.13,3.13,0,0,0-.22-1.15,3.43,3.43,0,0,0-.61-1,3.29,3.29,0,0,0-.95-.74,2.55,2.55,0,0,0-1.19-.29H86v6.42h5.09a2.58,2.58,0,0,0,1.18-.26,3.06,3.06,0,0,0,1-.73,3.26,3.26,0,0,0,.62-1A3.22,3.22,0,0,0,94,365.65Z" transform="translate(-0.82 0)"/><path class="cls-1" d="M127.47,348.09a1.21,1.21,0,0,1,.48.5.77.77,0,0,1,0,.73l-3.25,4.62a.77.77,0,0,1-.46.37.79.79,0,0,1-.58-.16,7.54,7.54,0,0,0-2.08-1.1,7.65,7.65,0,0,0-2.41-.38,7,7,0,0,0-5.19,2.23,7.59,7.59,0,0,0-1.5,2.42,8.12,8.12,0,0,0-.54,3,8,8,0,0,0,.54,2.95,7.39,7.39,0,0,0,1.5,2.4,7.08,7.08,0,0,0,2.29,1.63,6.93,6.93,0,0,0,2.9.59,7.54,7.54,0,0,0,2.43-.39,7.1,7.1,0,0,0,2.09-1.11,1,1,0,0,1,.58-.17.76.76,0,0,1,.46.35l3.29,4.73a.77.77,0,0,1,.06.71,1.23,1.23,0,0,1-.48.48,15.44,15.44,0,0,1-3.9,1.88,14.94,14.94,0,0,1-8.3.14,14.56,14.56,0,0,1-6.49-3.78,15.36,15.36,0,0,1-2.3-3,14.5,14.5,0,0,1-1.48-3.5,14.77,14.77,0,0,1,1.48-11.35,15.25,15.25,0,0,1,2.3-3,14.4,14.4,0,0,1,3-2.3,15.06,15.06,0,0,1,3.52-1.48,14.82,14.82,0,0,1,8.27.12A14.85,14.85,0,0,1,127.47,348.09Z" transform="translate(-0.82 0)"/><path class="cls-1" d="M157.52,360.32a14.43,14.43,0,0,1-.52,3.88,13.93,13.93,0,0,1-1.48,3.42,14.21,14.21,0,0,1-5.26,5.07,15.41,15.41,0,0,1-3.51,1.4,15.81,15.81,0,0,1-3.91.49h-9.48a1.17,1.17,0,0,1-.62-.16.68.68,0,0,1-.27-.65V346.9a1,1,0,0,1,.22-.65.84.84,0,0,1,.67-.25h9.48a14.79,14.79,0,0,1,3.9.5,14.52,14.52,0,0,1,3.5,1.42,14.89,14.89,0,0,1,3,2.21,13.67,13.67,0,0,1,2.3,2.89,14.89,14.89,0,0,1,1.48,3.44A14.06,14.06,0,0,1,157.52,360.32Zm-17.6-7.42v14.79h1.61q.45,0,.87,0l.85-.07a7.64,7.64,0,0,0,2.69-.7,7.36,7.36,0,0,0,2.18-1.54,6.84,6.84,0,0,0,1.46-2.24,7.16,7.16,0,0,0,.53-2.8,7.31,7.31,0,0,0-.6-3,7.51,7.51,0,0,0-1.65-2.34,7.3,7.3,0,0,0-2.43-1.54,8,8,0,0,0-3-.55Z" transform="translate(-0.82 0)"/><path class="cls-1" d="M165,365.34c.22.18.49.42.83.73A10.51,10.51,0,0,0,167,367a9.31,9.31,0,0,0,1.94,1,5.73,5.73,0,0,0,2,.36,5.27,5.27,0,0,0,1.65-.22,2.65,2.65,0,0,0,1-.58,2.11,2.11,0,0,0,.55-.85,3.11,3.11,0,0,0,.16-1,1.49,1.49,0,0,0-.45-1.06,4.5,4.5,0,0,0-1.1-.84,9.41,9.41,0,0,0-1.37-.62c-.47-.18-.88-.32-1.23-.44a27.21,27.21,0,0,1-4-1.73,12.86,12.86,0,0,1-2.88-2.08,7.63,7.63,0,0,1-1.73-2.52,7.73,7.73,0,0,1-.58-3.06,7.22,7.22,0,0,1,.72-3.25,7.08,7.08,0,0,1,2.06-2.5A9.62,9.62,0,0,1,167,346a14.53,14.53,0,0,1,4.21-.57,14.18,14.18,0,0,1,3.36.39,13.36,13.36,0,0,1,3.16,1.26c.44.26.85.53,1.24.8a12.42,12.42,0,0,1,1,.8,4.65,4.65,0,0,1,.7.73,1,1,0,0,1,.26.6.93.93,0,0,1-.12.46,3.27,3.27,0,0,1-.38.48l-2.94,3.13a1,1,0,0,1-.65.33.84.84,0,0,1-.49-.15c-.15-.11-.32-.23-.5-.39l-.17-.15c-.25-.22-.54-.44-.85-.67a7.44,7.44,0,0,0-1-.63,6.32,6.32,0,0,0-1.14-.46,4.17,4.17,0,0,0-1.21-.18,6.44,6.44,0,0,0-1.19.1,3.15,3.15,0,0,0-1,.34,1.8,1.8,0,0,0-.68.6,1.68,1.68,0,0,0-.25.92,1.59,1.59,0,0,0,.27.93,2.65,2.65,0,0,0,.81.73,7.31,7.31,0,0,0,1.34.64c.53.2,1.15.41,1.85.64,1.36.45,2.62.92,3.76,1.41a13.15,13.15,0,0,1,3,1.75,7.34,7.34,0,0,1,2,2.42,7.53,7.53,0,0,1,.7,3.4,8.41,8.41,0,0,1-.87,3.84,8.53,8.53,0,0,1-2.37,2.93,11,11,0,0,1-3.55,1.88,14.17,14.17,0,0,1-4.39.66,12.33,12.33,0,0,1-4.34-.79,16.54,16.54,0,0,1-4-2.12,9.45,9.45,0,0,1-1.3-1.1c-.36-.36-.63-.65-.84-.87l-.06-.06s0,0,0,0l0,0,0-.05,0,0a1.31,1.31,0,0,1-.44-.77,1.1,1.1,0,0,1,.44-.74l3.33-3.17a1.26,1.26,0,0,1,.65-.29.7.7,0,0,1,.37.12A5.22,5.22,0,0,1,165,365.34Z" transform="translate(-0.82 0)"/><path class="cls-1" d="M194.83,346.76a.6.6,0,0,1,.13-.25,1.25,1.25,0,0,1,.26-.25,2,2,0,0,1,.32-.18,1.09,1.09,0,0,1,.33-.07h4.92a.79.79,0,0,1,.56.21,2.86,2.86,0,0,1,.35.35l.48,1.1,10.1,26a.58.58,0,0,1-.06.63.94.94,0,0,1-.73.24H206a1.18,1.18,0,0,1-.68-.17,1,1,0,0,1-.38-.54c-.26-.66-.51-1.31-.75-2s-.49-1.29-.73-2H193.21c-.24.66-.49,1.31-.74,2s-.49,1.3-.74,2a1,1,0,0,1-1,.71h-5.67a.93.93,0,0,1-.61-.2.44.44,0,0,1-.08-.57Zm3.5,8.24c-.24.65-.49,1.36-.74,2.11s-.5,1.52-.74,2.29-.49,1.53-.74,2.28-.5,1.45-.74,2.11h5.9Z" transform="translate(-0.82 0)"/><path class="cls-1" d="M216.18,346.86a.91.91,0,0,1,.21-.6A.81.81,0,0,1,217,346h5.65a1.08,1.08,0,0,1,.62.24.71.71,0,0,1,.32.61v26.87c0,.56-.31.85-.94.85H217a.75.75,0,0,1-.85-.85Z" transform="translate(-0.82 0)"/><line class="cls-2" x1="193.86" y1="161.15" x2="202.24" y2="135.37"/><line class="cls-3" x1="153.38" y1="142.72" x2="163.3" y2="165.41"/><line class="cls-4" x1="125.79" y1="177.14" x2="146.93" y2="184.74"/><line class="cls-5" x1="137.14" y1="209.88" x2="149.77" y2="204.73"/><line class="cls-6" x1="219.13" y1="185.77" x2="247.88" y2="171.98"/><line class="cls-7" x1="224.16" y1="219.42" x2="259.22" y2="227.8"/><line class="cls-8" x1="204.56" y1="253.59" x2="229.05" y2="288.01"/><line class="cls-9" x1="163.82" y1="318.31" x2="165.63" y2="269.45"/><line class="cls-10" x1="82.99" y1="299.61" x2="116.89" y2="255.65"/><line class="cls-11" x1="23.43" y1="219.16" x2="85.18" y2="206.53"/><line class="cls-12" x1="39.67" y1="109.71" x2="94.72" y2="141.94"/><line class="cls-13" x1="123.73" y1="34.68" x2="145.9" y2="99.91"/><line class="cls-14" x1="134.95" y1="156.77" x2="152.48" y2="173.91"/><line class="cls-15" x1="177.62" y1="132.66" x2="178.52" y2="158.96"/><line class="cls-16" x1="209.46" y1="170.31" x2="227.64" y2="149.03"/><line class="cls-17" x1="225.45" y1="202.54" x2="256.77" y2="199.31"/><line class="cls-18" x1="217.84" y1="237.6" x2="250.33" y2="259.77"/><line class="cls-19" x1="186.77" y1="265.19" x2="199.79" y2="309.15"/><line class="cls-20" x1="123.73" y1="316.37" x2="140.87" y2="266.73"/><line class="cls-21" x1="50.11" y1="268.41" x2="97.82" y2="235.15"/><line class="cls-22" x1="21.75" y1="163.86" x2="83.25" y2="173.91"/><line class="cls-23" x1="73.45" y1="62.14" x2="114.57" y2="115.9"/><line class="cls-24" x1="179.94" y1="25.14" x2="179.94" y2="92.44"/><line class="cls-25" x1="127.72" y1="196.35" x2="147.58" y2="196.22"/><line class="cls-26" x1="158.02" y1="225.09" x2="162.27" y2="216.59"/><line class="cls-27" x1="147.06" y1="219.42" x2="156.09" y2="211.04"/><line class="cls-28" x1="174.27" y1="94.37" x2="127.21" y2="32.88"/><line class="cls-29" x1="119.73" y1="35.32" x2="119.73" y2="114.22"/><line class="cls-29" x1="111.35" y1="120.93" x2="40.96" y2="106.36"/><line class="cls-29" x1="37.22" y1="112.55" x2="85.82" y2="169.27"/><line class="cls-29" x1="84.28" y1="179.2" x2="22.27" y2="215.94"/><line class="cls-29" x1="23.69" y1="222.39" x2="96.53" y2="230.25"/><line class="cls-29" x1="101.43" y1="237.86" x2="80.28" y2="298.06"/><line class="cls-29" x1="84.92" y1="301.67" x2="137.65" y2="264.29"/><line class="cls-29" x1="145" y1="266.73" x2="160.98" y2="318.69"/><line class="cls-30" x1="231.12" y1="286.85" x2="215.13" y2="239.66"/><line class="cls-31" x1="218.74" y1="233.99" x2="259.09" y2="230.12"/><line class="cls-31" x1="260" y1="225.87" x2="224.8" y2="205.5"/><line class="cls-31" x1="224.03" y1="199.57" x2="249.17" y2="173.79"/><line class="cls-32" x1="247.23" y1="169.79" x2="211.01" y2="173.14"/><line class="cls-32" x1="206.37" y1="169.27" x2="204.3" y2="135.63"/><line class="cls-32" x1="200.56" y1="134.47" x2="180.97" y2="159.73"/><line class="cls-32" x1="175.81" y1="160.25" x2="154.93" y2="141.43"/><line class="cls-33" x1="151.83" y1="143.1" x2="154.41" y2="173.01"/><line class="cls-33" x1="151.57" y1="176.11" x2="126.05" y2="175.85"/><line class="cls-34" x1="137.27" y1="210.79" x2="155.57" y2="209.88"/><line class="cls-34" x1="157.5" y1="211.69" x2="156.99" y2="224.84"/><line class="cls-30" x1="166.27" y1="318.69" x2="183.16" y2="265.19"/><line class="cls-30" x1="189.99" y1="262.87" x2="227.12" y2="289.81"/><line class="cls-34" x1="136.49" y1="208.85" x2="148.35" y2="197.9"/><line class="cls-33" x1="125.27" y1="178.04" x2="148.09" y2="194.67"/><path class="cls-1" d="M194.16,191.7a13.54,13.54,0,1,1-13.53-13.53,13.7,13.7,0,0,1,13.53,13.53" transform="translate(-0.82 0)"/><path class="cls-1" d="M193.26,12.63A12.63,12.63,0,1,1,180.63,0a12.65,12.65,0,0,1,12.63,12.63" transform="translate(-0.82 0)"/><path class="cls-1" d="M190.17,101.72a9.39,9.39,0,0,1-9.41,9.41,9.35,9.35,0,1,1,9.41-9.41" transform="translate(-0.82 0)"/><path class="cls-1" d="M128.93,122.34a8.51,8.51,0,1,1-8.77-8.25,8.6,8.6,0,0,1,8.77,8.25" transform="translate(-0.82 0)"/><path class="cls-1" d="M99.67,174.17a7.88,7.88,0,1,1-8.9-6.7,7.77,7.77,0,0,1,8.9,6.7" transform="translate(-0.82 0)"/><path class="cls-1" d="M111.53,233.09a7.26,7.26,0,1,1-4.9-9,7,7,0,0,1,4.9,9" transform="translate(-0.82 0)"/><path class="cls-1" d="M150.59,260.8a6.72,6.72,0,1,1-6.32-7.09,6.68,6.68,0,0,1,6.32,7.09" transform="translate(-0.82 0)"/><path class="cls-1" d="M192,260a6.11,6.11,0,1,1-5.28-6.83A6.27,6.27,0,0,1,192,260" transform="translate(-0.82 0)"/><path class="cls-1" d="M219.69,234.38a5.55,5.55,0,1,1-5.54-5.55,5.67,5.67,0,0,1,5.54,5.55" transform="translate(-0.82 0)"/><path class="cls-1" d="M226.27,203.82a4.79,4.79,0,0,1-5.68,4,4.85,4.85,0,0,1-4-5.67,4.78,4.78,0,0,1,5.67-4,5.13,5.13,0,0,1,4,5.67" transform="translate(-0.82 0)"/><path class="cls-1" d="M211.57,174.82a4.32,4.32,0,0,1-8.25-2.58,4.25,4.25,0,0,1,5.41-2.84,4.31,4.31,0,0,1,2.84,5.42" transform="translate(-0.82 0)"/><path class="cls-1" d="M183.21,162.83a3.68,3.68,0,1,1-3.48-3.87,3.82,3.82,0,0,1,3.48,3.87" transform="translate(-0.82 0)"/><path class="cls-1" d="M158.58,176.62a3.11,3.11,0,1,1-2.7-3.48,2.94,2.94,0,0,1,2.7,3.48" transform="translate(-0.82 0)"/><path class="cls-1" d="M153.43,196.73a2.5,2.5,0,1,1-1.94-3,2.35,2.35,0,0,1,1.94,3" transform="translate(-0.82 0)"/><path class="cls-1" d="M78.78,52.47A11.74,11.74,0,1,1,66.66,41.12,11.63,11.63,0,0,1,78.78,52.47" transform="translate(-0.82 0)"/><path class="cls-1" d="M22.57,160.64a10.92,10.92,0,1,1-12.25-9.42,10.89,10.89,0,0,1,12.25,9.42" transform="translate(-0.82 0)"/><path class="cls-1" d="M52.22,277.18a10.11,10.11,0,1,1-6.7-12.64,10.1,10.1,0,0,1,6.7,12.64" transform="translate(-0.82 0)"/><path class="cls-1" d="M130.74,325.65a9.3,9.3,0,1,1-8.77-9.8,9.27,9.27,0,0,1,8.77,9.8" transform="translate(-0.82 0)"/><path class="cls-1" d="M211.44,318.3a8.44,8.44,0,1,1-7.35-9.41,8.51,8.51,0,0,1,7.35,9.41" transform="translate(-0.82 0)"/><path class="cls-1" d="M265.07,264a7.61,7.61,0,1,1-7.61-7.61,7.54,7.54,0,0,1,7.61,7.61" transform="translate(-0.82 0)"/><path class="cls-1" d="M271,199.83a6.8,6.8,0,1,1-5.54-7.87,6.74,6.74,0,0,1,5.54,7.87" transform="translate(-0.82 0)"/><path class="cls-1" d="M238.13,146.32a6,6,0,1,1-3.87-7.47,6,6,0,0,1,3.87,7.47" transform="translate(-0.82 0)"/><path class="cls-1" d="M183.46,127.89a5.16,5.16,0,1,1-4.89-5.42,5.16,5.16,0,0,1,4.89,5.42" transform="translate(-0.82 0)"/><path class="cls-1" d="M137.05,154.44a4.36,4.36,0,1,1-3.73-4.89,4.36,4.36,0,0,1,3.73,4.89" transform="translate(-0.82 0)"/><path class="cls-1" d="M128.41,197a3.49,3.49,0,1,1-2.7-4.13,3.48,3.48,0,0,1,2.7,4.13" transform="translate(-0.82 0)"/><path class="cls-35" d="M158.32,107.78a8.77,8.77,0,1,1-9.15-8.38,9,9,0,0,1,9.15,8.38" transform="translate(-0.82 0)"/><path class="cls-35" d="M110.75,145.16a8.17,8.17,0,1,1-9-7.22,8.23,8.23,0,0,1,9,7.22" transform="translate(-0.82 0)"/><path class="cls-35" d="M100.83,206.79a7.57,7.57,0,1,1-5.54-9.15,7.48,7.48,0,0,1,5.54,9.15" transform="translate(-0.82 0)"/><path class="cls-35" d="M128.93,250.36a7,7,0,1,1-6.7-7.22,6.95,6.95,0,0,1,6.7,7.22" transform="translate(-0.82 0)"/><path class="cls-35" d="M173,263.38a6.39,6.39,0,1,1-6.06-6.7,6.44,6.44,0,0,1,6.06,6.7" transform="translate(-0.82 0)"/><path class="cls-35" d="M207.83,248.82a5.8,5.8,0,1,1-5.93-5.68,5.7,5.7,0,0,1,5.93,5.68" transform="translate(-0.82 0)"/><path class="cls-35" d="M225.1,218.26A5.16,5.16,0,1,1,220,213.1a5,5,0,0,1,5.15,5.16" transform="translate(-0.82 0)"/><path class="cls-35" d="M220.34,188.48a4.63,4.63,0,1,1-3.87-5.29,4.67,4.67,0,0,1,3.87,5.29" transform="translate(-0.82 0)"/><path class="cls-35" d="M197.52,165.41a4,4,0,1,1-3.61-4.39,4,4,0,0,1,3.61,4.39" transform="translate(-0.82 0)"/><path class="cls-35" d="M168.9,168a3.47,3.47,0,1,1-4-2.83,3.33,3.33,0,0,1,4,2.83" transform="translate(-0.82 0)"/><path class="cls-35" d="M153.3,186a2.86,2.86,0,1,1-2.45-3.22A2.9,2.9,0,0,1,153.3,186" transform="translate(-0.82 0)"/><path class="cls-35" d="M154.84,203.57a2.2,2.2,0,1,1-2.44-1.94,2.28,2.28,0,0,1,2.44,1.94" transform="translate(-0.82 0)"/><path class="cls-35" d="M132.8,22.69a12.13,12.13,0,1,1-12.64-11.6,12.11,12.11,0,0,1,12.64,11.6" transform="translate(-0.82 0)"/><path class="cls-35" d="M41.91,102.75a11.35,11.35,0,1,1-12.5-10.06,11.39,11.39,0,0,1,12.5,10.06" transform="translate(-0.82 0)"/><path class="cls-35" d="M24.25,223.68A10.48,10.48,0,1,1,16.51,211a10.46,10.46,0,0,1,7.74,12.64" transform="translate(-0.82 0)"/><path class="cls-35" d="M87.55,307.6a9.68,9.68,0,1,1-9.28-10.05,9.76,9.76,0,0,1,9.28,10.05" transform="translate(-0.82 0)"/><path class="cls-35" d="M173.28,327.59a8.84,8.84,0,1,1-8.38-9.29,9,9,0,0,1,8.38,9.29" transform="translate(-0.82 0)"/><path class="cls-35" d="M242.51,294.45a8,8,0,1,1-8.12-7.86,7.87,7.87,0,0,1,8.12,7.86" transform="translate(-0.82 0)"/><path class="cls-35" d="M274.36,229.48a7.23,7.23,0,1,1-7.23-7.22,7.21,7.21,0,0,1,7.23,7.22" transform="translate(-0.82 0)"/><path class="cls-35" d="M260.69,170.18a6.38,6.38,0,1,1-5.42-7.22,6.23,6.23,0,0,1,5.42,7.22" transform="translate(-0.82 0)"/><path class="cls-35" d="M210.41,130.6a5.57,5.57,0,1,1-5-6.07,5.61,5.61,0,0,1,5,6.07" transform="translate(-0.82 0)"/><path class="cls-35" d="M156.91,137.56a4.7,4.7,0,1,1-5.42-3.87,4.69,4.69,0,0,1,5.42,3.87" transform="translate(-0.82 0)"/><path class="cls-35" d="M126.87,176.36a3.9,3.9,0,1,1-3.35-4.38,3.83,3.83,0,0,1,3.35,4.38" transform="translate(-0.82 0)"/><path class="cls-35" d="M138.09,210.66a3,3,0,1,1-3.36-2.71,3,3,0,0,1,3.36,2.71" transform="translate(-0.82 0)"/><path class="cls-35" d="M165.54,214.91a1.62,1.62,0,0,1-3.22.39,1.62,1.62,0,1,1,3.22-.39" transform="translate(-0.82 0)"/><path class="cls-35" d="M160,226.9a2.26,2.26,0,1,1-2.45-2.06A2.28,2.28,0,0,1,160,226.9" transform="translate(-0.82 0)"/><path class="cls-1" d="M160.26,210.14a2,2,0,1,1-1.55-2.32,1.91,1.91,0,0,1,1.55,2.32" transform="translate(-0.82 0)"/><path class="cls-1" d="M148.53,221.87a2.71,2.71,0,1,1-2.07-3.22,2.62,2.62,0,0,1,2.07,3.22" transform="translate(-0.82 0)"/></svg>